<svg width="60" height="60" viewBox="0 0 60 60" fill="none" xmlns="http://www.w3.org/2000/svg">
<circle cx="30" cy="30" r="29.5" fill="#09090B" stroke="#39393C"/>
<path d="M29.5 20C24.2535 20 20 23.9182 20 28.7459C20 32.3142 21.5028 34.0109 23.5592 35.5677H23.568V39.757C23.568 39.9582 23.7965 40.0719 23.9547 39.9494L27.5578 37.2907L27.6369 37.3256C28.2433 37.4393 28.8673 37.4918 29.5 37.4918C34.7465 37.4918 39 33.5736 39 28.7459C39 23.9182 34.7465 20 29.5 20ZM26.3187 30.9586C27.2502 30.9586 28.05 30.4076 28.2872 29.5505H29.667C29.333 31.2035 28.0412 32.2793 26.3187 32.2793C24.3238 32.2793 22.7419 30.8012 22.7419 28.7372C22.7419 26.6731 24.3238 25.1951 26.3187 25.1951C28.05 25.1951 29.3506 26.2971 29.6758 27.9763H28.3048C28.0939 27.0667 27.2766 26.4982 26.3275 26.4982C24.9829 26.4982 24.0953 27.4515 24.0953 28.7459C24.0953 30.0403 25.1147 30.9674 26.3275 30.9674M35.4056 32.1481H34.1401V29.3144C34.1401 28.6584 33.7623 28.3086 33.1734 28.3086C32.5143 28.3086 32.1013 28.7109 32.1013 29.5155V32.1481H30.8358V25.2126H32.1013V27.8188C32.4089 27.3641 32.8922 27.1367 33.5601 27.1367C34.0962 27.1367 34.5356 27.3116 34.8784 27.6702C35.2299 28.0287 35.4056 28.5185 35.4056 29.1482V32.1393V32.1481Z" fill="white"/>
</svg>
