<svg width="31" height="31" viewBox="0 0 31 31" fill="none" xmlns="http://www.w3.org/2000/svg">
<g clip-path="url(#clip0_1_19)">
<path d="M15.5 29.76C23.3756 29.76 29.76 23.3756 29.76 15.5C29.76 7.62442 23.3756 1.24 15.5 1.24C7.62442 1.24 1.24 7.62442 1.24 15.5C1.24 23.3756 7.62442 29.76 15.5 29.76Z" fill="#09090B" stroke="#39393C"/>
<g clip-path="url(#clip1_1_19)">
<path d="M20.8635 9.24203L8.46011 14.0498C7.96098 14.2737 7.79216 14.722 8.33947 14.9654L11.5215 15.9818L19.2151 11.2024C19.6352 10.9023 20.0653 10.9824 19.6952 11.3124L13.0874 17.3263L12.8798 19.8713C13.0721 20.2643 13.4241 20.2661 13.6486 20.0708L15.4768 18.332L18.6078 20.6887C19.335 21.1214 19.7307 20.8422 19.8871 20.049L21.9408 10.2745C22.154 9.29814 21.7904 8.86797 20.8635 9.24203Z" fill="white"/>
</g>
</g>
<defs>
<clipPath id="clip0_1_19">
<rect width="31" height="31" fill="white"/>
</clipPath>
<clipPath id="clip1_1_19">
<rect width="14" height="14" fill="white" transform="translate(8 8)"/>
</clipPath>
</defs>
</svg>
