<svg width="31" height="31" viewBox="0 0 31 31" fill="none" xmlns="http://www.w3.org/2000/svg">
<g clip-path="url(#clip0_1_14)">
<path d="M15.5 29.76C23.3756 29.76 29.76 23.3756 29.76 15.5C29.76 7.62442 23.3756 1.24 15.5 1.24C7.62442 1.24 1.24 7.62442 1.24 15.5C1.24 23.3756 7.62442 29.76 15.5 29.76Z" fill="#09090B" stroke="#39393C"/>
<path d="M15.5 8.68C11.7336 8.68 8.68 11.5951 8.68 15.1869C8.68 17.8418 9.75885 19.1041 11.2351 20.2624H11.2414V23.3792C11.2414 23.5289 11.4055 23.6135 11.5191 23.5223L14.1057 21.5443L14.1625 21.5702C14.5978 21.6548 15.0458 21.6939 15.5 21.6939C19.2664 21.6939 22.32 18.7787 22.32 15.1869C22.32 11.5951 19.2664 8.68 15.5 8.68ZM13.2162 16.8332C13.8849 16.8332 14.4591 16.4232 14.6293 15.7856H15.6199C15.3801 17.0154 14.4527 17.8158 13.2162 17.8158C11.784 17.8158 10.6484 16.7161 10.6484 15.1805C10.6484 13.6448 11.784 12.5452 13.2162 12.5452C14.4591 12.5452 15.3927 13.365 15.6262 14.6144H14.642C14.4906 13.9376 13.9038 13.5147 13.2225 13.5147C12.2572 13.5147 11.62 14.2239 11.62 15.1869C11.62 16.15 12.3518 16.8397 13.2225 16.8397M19.7396 17.7182H18.8311V15.6099C18.8311 15.1218 18.5599 14.8616 18.1371 14.8616C17.664 14.8616 17.3675 15.1609 17.3675 15.7595V17.7182H16.459V12.5582H17.3675V14.4972C17.5883 14.1589 17.9352 13.9897 18.4147 13.9897C18.7996 13.9897 19.115 14.1198 19.3611 14.3866C19.6135 14.6533 19.7396 15.0178 19.7396 15.4863V17.7116V17.7182Z" fill="white"/>
</g>
<defs>
<clipPath id="clip0_1_14">
<rect width="31" height="31" fill="white"/>
</clipPath>
</defs>
</svg>
